<svg xmlns="http://www.w3.org/2000/svg" xmlns:xlink="http://www.w3.org/1999/xlink" width="600" zoomAndPan="magnify" viewBox="0 0 450 89.999999" height="120" preserveAspectRatio="xMidYMid meet" version="1.0"><defs><g/><clipPath id="c7da198613"><path d="M 31 11.574219 L 71.789062 11.574219 L 71.789062 75.324219 L 31 75.324219 Z M 31 11.574219 " clip-rule="nonzero"/></clipPath><clipPath id="d2adf22dc9"><path d="M 8.039062 23 L 48 23 L 48 64 L 8.039062 64 Z M 8.039062 23 " clip-rule="nonzero"/></clipPath></defs><g clip-path="url(#c7da198613)"><path fill="#191919" d="M 39.785156 75.324219 L 71.660156 43.449219 L 39.785156 11.574219 L 31.667969 19.6875 L 55.429688 43.449219 L 31.667969 67.207031 " fill-opacity="1" fill-rule="nonzero"/></g><g clip-path="url(#d2adf22dc9)"><path fill="#ff4e5e" d="M 8.039062 43.449219 L 27.644531 23.84375 L 47.25 43.449219 L 27.644531 63.054688 Z M 8.039062 43.449219 " fill-opacity="1" fill-rule="nonzero"/></g><path fill="#ffffff" d="M 42.523438 43.449219 L 27.851562 58.121094 L 13.179688 43.449219 L 27.851562 28.777344 Z M 27.851562 55.726562 L 40.128906 43.449219 L 27.851562 31.171875 L 15.574219 43.449219 Z M 27.851562 55.726562 " fill-opacity="1" fill-rule="nonzero"/><g fill="#191919" fill-opacity="1"><g transform="translate(79.372785, 58.453622)"><g><path d="M 2.695312 0 L 16.511719 0 C 28.113281 0 35.816406 -6.738281 35.816406 -17.1875 C 35.816406 -27.632812 28.066406 -34.375 16.511719 -34.375 L 2.695312 -34.375 Z M 11.699219 -6.933594 L 11.699219 -27.441406 L 16.511719 -27.441406 C 22.484375 -27.441406 26.527344 -23.492188 26.527344 -17.1875 C 26.527344 -10.878906 22.484375 -6.933594 16.511719 -6.933594 Z M 11.699219 -6.933594 "/></g></g></g><g fill="#191919" fill-opacity="1"><g transform="translate(116.729927, 58.453622)"><g><path d="M 2.3125 0 L 10.589844 0 L 10.589844 -12.46875 C 10.589844 -15.933594 12.515625 -18.246094 15.453125 -18.246094 C 16.707031 -18.246094 18.34375 -17.859375 19.785156 -17.1875 L 19.785156 -24.601562 C 18.921875 -25.035156 17.859375 -25.226562 16.851562 -25.226562 C 14.152344 -25.226562 12.132812 -23.636719 11.023438 -20.894531 L 10.542969 -20.894531 L 10.542969 -24.746094 L 2.3125 -24.746094 Z M 2.3125 0 "/></g></g></g><g fill="#191919" fill-opacity="1"><g transform="translate(137.382265, 58.453622)"><g><path d="M 15.019531 0.625 C 21.328125 0.625 26.574219 -2.503906 27.777344 -7.269531 L 20.558594 -8.28125 C 19.835938 -6.355469 17.910156 -4.957031 15.453125 -4.957031 C 12.277344 -4.957031 10.109375 -7.027344 9.628906 -10.15625 L 28.546875 -10.15625 C 28.597656 -10.542969 28.644531 -11.699219 28.644531 -12.277344 C 28.644531 -20.269531 23.300781 -25.371094 15.117188 -25.371094 C 6.933594 -25.371094 1.105469 -20.316406 1.105469 -12.421875 C 1.105469 -4.476562 6.789062 0.625 15.019531 0.625 Z M 9.53125 -14.441406 C 9.964844 -17.667969 11.988281 -19.785156 14.972656 -19.785156 C 18.003906 -19.785156 20.21875 -17.378906 20.363281 -14.441406 Z M 9.53125 -14.441406 "/></g></g></g><g fill="#191919" fill-opacity="1"><g transform="translate(167.085038, 58.453622)"><g><path d="M 9.050781 0.625 C 12.46875 0.625 15.695312 -0.675781 17.140625 -3.273438 L 17.570312 -3.273438 L 17.570312 0 L 25.851562 0 L 25.851562 -16.175781 C 25.851562 -21.664062 21.085938 -25.273438 14.007812 -25.273438 C 6.835938 -25.273438 2.117188 -21.664062 2.117188 -16.222656 L 10.011719 -16.222656 C 10.011719 -18.632812 11.699219 -20.171875 13.914062 -20.171875 C 16.128906 -20.171875 17.570312 -18.632812 17.570312 -16.511719 L 17.570312 -15.261719 L 12.855469 -14.539062 C 4.765625 -13.335938 1.011719 -10.929688 1.011719 -6.210938 C 1.011719 -1.828125 4.332031 0.625 9.050781 0.625 Z M 12.421875 -4.285156 C 10.253906 -4.285156 8.953125 -5.390625 8.953125 -7.027344 C 8.953125 -8.714844 10.207031 -9.773438 13.289062 -10.300781 L 17.570312 -11.023438 L 17.570312 -9.339844 C 17.570312 -6.449219 15.5 -4.285156 12.421875 -4.285156 Z M 12.421875 -4.285156 "/></g></g></g><g fill="#191919" fill-opacity="1"><g transform="translate(194.958472, 58.453622)"><g><path d="M 2.3125 0 L 10.589844 0 L 10.589844 -13.914062 C 10.589844 -16.65625 12.082031 -18.488281 14.441406 -18.488281 C 16.753906 -18.488281 18.292969 -16.65625 18.292969 -13.914062 L 18.292969 0 L 26.527344 0 L 26.527344 -13.914062 C 26.527344 -16.65625 28.113281 -18.488281 30.570312 -18.488281 C 33.074219 -18.390625 34.566406 -16.464844 34.566406 -13.914062 L 34.566406 0 L 42.847656 0 L 42.847656 -15.886719 C 42.847656 -21.566406 39.234375 -25.371094 34.035156 -25.371094 C 30.28125 -25.371094 27.488281 -23.445312 26.382812 -20.21875 L 25.949219 -20.21875 C 24.890625 -23.300781 21.90625 -25.371094 18.4375 -25.371094 C 15.164062 -25.371094 12.421875 -23.492188 11.023438 -20.605469 L 10.542969 -20.605469 L 10.542969 -24.746094 L 2.3125 -24.746094 Z M 2.3125 0 "/></g></g></g><g fill="#191919" fill-opacity="1"><g transform="translate(239.825547, 58.453622)"><g/></g></g><g fill="#191919" fill-opacity="1"><g transform="translate(251.52372, 58.453622)"><g><path d="M 20.269531 0.722656 C 29.800781 0.722656 37.117188 -4.8125 37.886719 -12.710938 L 29.269531 -13.671875 C 28.5 -9.773438 24.792969 -6.882812 20.558594 -6.882812 C 14.828125 -6.882812 10.832031 -11.023438 10.832031 -17.1875 C 10.832031 -23.398438 14.78125 -27.488281 20.558594 -27.488281 C 24.792969 -27.488281 28.453125 -24.550781 29.269531 -20.605469 L 37.792969 -21.519531 C 36.828125 -29.511719 29.558594 -35.097656 20.269531 -35.097656 C 9.386719 -35.097656 1.539062 -27.875 1.539062 -17.1875 C 1.539062 -6.546875 9.386719 0.722656 20.269531 0.722656 Z M 20.269531 0.722656 "/></g></g></g><g fill="#191919" fill-opacity="1"><g transform="translate(290.999048, 58.453622)"><g><path d="M 14.972656 0.625 C 23.398438 0.625 28.835938 -4.285156 28.835938 -12.371094 C 28.835938 -20.460938 23.347656 -25.371094 14.972656 -25.371094 C 6.5 -25.371094 1.058594 -20.460938 1.058594 -12.371094 C 1.058594 -4.332031 6.546875 0.625 14.972656 0.625 Z M 14.972656 -6.257812 C 11.652344 -6.257812 9.339844 -8.761719 9.339844 -12.371094 C 9.339844 -15.984375 11.652344 -18.488281 14.972656 -18.488281 C 18.246094 -18.488281 20.558594 -15.984375 20.558594 -12.371094 C 20.558594 -8.761719 18.246094 -6.257812 14.972656 -6.257812 Z M 14.972656 -6.257812 "/></g></g></g><g fill="#191919" fill-opacity="1"><g transform="translate(320.894379, 58.453622)"><g><path d="M 12.082031 0.625 C 15.644531 0.625 18.199219 -0.914062 19.835938 -3.5625 L 20.269531 -3.5625 L 20.269531 0 L 28.546875 0 L 28.546875 -35.816406 L 20.269531 -35.816406 L 20.269531 -21.183594 L 19.835938 -21.183594 C 18.199219 -23.832031 15.644531 -25.371094 12.082031 -25.371094 C 5.535156 -25.371094 1.105469 -20.269531 1.105469 -12.371094 C 1.105469 -4.429688 5.488281 0.625 12.082031 0.625 Z M 14.972656 -6.257812 C 11.746094 -6.257812 9.386719 -8.859375 9.386719 -12.371094 C 9.386719 -15.886719 11.746094 -18.488281 14.972656 -18.488281 C 18.246094 -18.488281 20.605469 -15.886719 20.605469 -12.371094 C 20.605469 -8.859375 18.246094 -6.257812 14.972656 -6.257812 Z M 14.972656 -6.257812 "/></g></g></g><g fill="#191919" fill-opacity="1"><g transform="translate(351.752547, 58.453622)"><g><path d="M 6.546875 -27.683594 C 9.292969 -27.683594 11.265625 -29.558594 11.265625 -32.207031 C 11.265625 -34.855469 9.292969 -36.734375 6.546875 -36.734375 C 3.851562 -36.734375 1.878906 -34.855469 1.878906 -32.207031 C 1.878906 -29.558594 3.851562 -27.683594 6.546875 -27.683594 Z M 2.40625 0 L 10.6875 0 L 10.6875 -24.746094 L 2.40625 -24.746094 Z M 2.40625 0 "/></g></g></g><g fill="#191919" fill-opacity="1"><g transform="translate(364.846807, 58.453622)"><g><path d="M 2.3125 0 L 10.589844 0 L 10.589844 -13.769531 C 10.589844 -16.511719 12.421875 -18.488281 14.828125 -18.488281 C 17.28125 -18.488281 18.824219 -16.464844 18.824219 -13.671875 L 18.824219 0 L 27.105469 0 L 27.105469 -15.308594 C 27.105469 -21.132812 23.542969 -25.371094 18.390625 -25.371094 C 15.164062 -25.371094 12.902344 -23.832031 10.976562 -20.703125 L 10.589844 -20.703125 L 10.589844 -24.746094 L 2.3125 -24.746094 Z M 2.3125 0 "/></g></g></g><g fill="#191919" fill-opacity="1"><g transform="translate(393.971905, 58.453622)"><g><path d="M 15.117188 11.699219 C 23.300781 11.699219 28.546875 7.316406 28.546875 -0.046875 L 28.546875 -24.746094 L 20.605469 -24.746094 L 20.605469 -20.988281 L 20.171875 -20.988281 C 18.390625 -23.78125 15.742188 -25.371094 12.035156 -25.371094 C 5.535156 -25.371094 1.105469 -20.605469 1.105469 -12.371094 C 1.105469 -4.574219 5.585938 0.289062 12.082031 0.289062 C 15.5 0.289062 18.054688 -1.15625 19.835938 -3.609375 L 20.269531 -3.609375 L 20.269531 -0.386719 C 20.269531 3.03125 18.003906 5.441406 14.636719 5.441406 C 11.792969 5.441406 9.53125 3.804688 9.148438 1.445312 L 1.25 2.214844 C 1.878906 8.230469 7.269531 11.699219 15.117188 11.699219 Z M 15.019531 -6.308594 C 11.746094 -6.308594 9.386719 -8.859375 9.386719 -12.371094 C 9.386719 -15.886719 11.699219 -18.488281 15.019531 -18.488281 C 18.246094 -18.488281 20.605469 -15.886719 20.605469 -12.371094 C 20.605469 -8.859375 18.292969 -6.308594 15.019531 -6.308594 Z M 15.019531 -6.308594 "/></g></g></g><g fill="#ff4e5e" fill-opacity="1"><g transform="translate(128.761827, 80.587539)"><g><path d="M 7.109375 0.253906 C 10.453125 0.253906 13.019531 -1.6875 13.289062 -4.457031 L 10.265625 -4.796875 C 9.996094 -3.429688 8.695312 -2.414062 7.210938 -2.414062 C 5.203125 -2.414062 3.800781 -3.867188 3.800781 -6.027344 C 3.800781 -8.207031 5.183594 -9.644531 7.210938 -9.644531 C 8.695312 -9.644531 9.980469 -8.613281 10.265625 -7.226562 L 13.257812 -7.546875 C 12.917969 -10.351562 10.367188 -12.3125 7.109375 -12.3125 C 3.292969 -12.3125 0.539062 -9.777344 0.539062 -6.027344 C 0.539062 -2.296875 3.292969 0.253906 7.109375 0.253906 Z M 7.109375 0.253906 "/></g></g></g><g fill="#ff4e5e" fill-opacity="1"><g transform="translate(144.818711, 80.587539)"><g><path d="M 7.261719 0.253906 C 11.265625 0.253906 14 -2.195312 14 -6.027344 C 14 -9.863281 11.265625 -12.3125 7.261719 -12.3125 C 3.257812 -12.3125 0.539062 -9.863281 0.539062 -6.027344 C 0.539062 -2.195312 3.257812 0.253906 7.261719 0.253906 Z M 7.261719 -2.414062 C 5.21875 -2.414062 3.800781 -3.867188 3.800781 -6.027344 C 3.800781 -8.191406 5.21875 -9.644531 7.261719 -9.644531 C 9.304688 -9.644531 10.722656 -8.191406 10.722656 -6.027344 C 10.722656 -3.867188 9.304688 -2.414062 7.261719 -2.414062 Z M 7.261719 -2.414062 "/></g></g></g><g fill="#ff4e5e" fill-opacity="1"><g transform="translate(161.567775, 80.587539)"><g><path d="M 0.945312 0 L 5.792969 0 C 9.863281 0 12.5625 -2.363281 12.5625 -6.027344 C 12.5625 -9.691406 9.84375 -12.058594 5.792969 -12.058594 L 0.945312 -12.058594 Z M 4.105469 -2.433594 L 4.105469 -9.625 L 5.792969 -9.625 C 7.886719 -9.625 9.304688 -8.242188 9.304688 -6.027344 C 9.304688 -3.816406 7.886719 -2.433594 5.792969 -2.433594 Z M 4.105469 -2.433594 "/></g></g></g><g fill="#ff4e5e" fill-opacity="1"><g transform="translate(176.881835, 80.587539)"><g><path d="M 0.945312 0 L 10.351562 0 L 10.351562 -2.550781 L 4.085938 -2.550781 L 4.085938 -5.066406 L 9.863281 -5.066406 L 9.863281 -7.144531 L 4.085938 -7.144531 L 4.085938 -9.507812 L 10.183594 -9.507812 L 10.183594 -12.058594 L 0.945312 -12.058594 Z M 0.945312 0 "/></g></g></g><g fill="#ff4e5e" fill-opacity="1"><g transform="translate(189.933623, 80.587539)"><g/></g></g><g fill="#ff4e5e" fill-opacity="1"><g transform="translate(196.249301, 80.587539)"><g><path d="M 4.273438 0 L 7.53125 0 L 7.53125 -4.273438 L 11.585938 -12.058594 L 8.140625 -12.058594 L 5.976562 -7.125 L 5.824219 -7.125 L 3.511719 -12.058594 L 0.136719 -12.058594 L 4.273438 -4.273438 Z M 4.273438 0 "/></g></g></g><g fill="#ff4e5e" fill-opacity="1"><g transform="translate(210.145229, 80.587539)"><g><path d="M 7.261719 0.253906 C 11.265625 0.253906 14 -2.195312 14 -6.027344 C 14 -9.863281 11.265625 -12.3125 7.261719 -12.3125 C 3.257812 -12.3125 0.539062 -9.863281 0.539062 -6.027344 C 0.539062 -2.195312 3.257812 0.253906 7.261719 0.253906 Z M 7.261719 -2.414062 C 5.21875 -2.414062 3.800781 -3.867188 3.800781 -6.027344 C 3.800781 -8.191406 5.21875 -9.644531 7.261719 -9.644531 C 9.304688 -9.644531 10.722656 -8.191406 10.722656 -6.027344 C 10.722656 -3.867188 9.304688 -2.414062 7.261719 -2.414062 Z M 7.261719 -2.414062 "/></g></g></g><g fill="#ff4e5e" fill-opacity="1"><g transform="translate(226.894296, 80.587539)"><g><path d="M 6.398438 0.253906 C 9.726562 0.253906 11.957031 -1.757812 11.957031 -5.015625 L 11.957031 -12.058594 L 8.695312 -12.058594 L 8.695312 -5.132812 C 8.695312 -3.460938 7.800781 -2.414062 6.398438 -2.414062 C 4.980469 -2.414062 4.105469 -3.445312 4.105469 -5.132812 L 4.105469 -12.058594 L 0.84375 -12.058594 L 0.84375 -5.015625 C 0.84375 -1.757812 3.074219 0.253906 6.398438 0.253906 Z M 6.398438 0.253906 "/></g></g></g><g fill="#ff4e5e" fill-opacity="1"><g transform="translate(241.887574, 80.587539)"><g><path d="M 0.945312 0 L 4.222656 0 L 4.222656 -4.152344 L 5.351562 -4.152344 L 8.476562 0 L 12.074219 0 L 8.445312 -4.390625 L 8.695312 -4.425781 C 10.519531 -4.710938 11.804688 -6.078125 11.804688 -8.039062 C 11.804688 -10.453125 9.894531 -12.058594 6.957031 -12.058594 L 0.945312 -12.058594 Z M 4.222656 -6.230469 L 4.222656 -9.742188 L 6.332031 -9.742188 C 7.617188 -9.742188 8.546875 -9.101562 8.546875 -7.988281 C 8.546875 -6.890625 7.617188 -6.230469 6.332031 -6.230469 Z M 4.222656 -6.230469 "/></g></g></g><g fill="#ff4e5e" fill-opacity="1"><g transform="translate(256.492569, 80.587539)"><g/></g></g><g fill="#ff4e5e" fill-opacity="1"><g transform="translate(262.808252, 80.587539)"><g><path d="M 0.945312 0 L 5.792969 0 C 9.863281 0 12.5625 -2.363281 12.5625 -6.027344 C 12.5625 -9.691406 9.84375 -12.058594 5.792969 -12.058594 L 0.945312 -12.058594 Z M 4.105469 -2.433594 L 4.105469 -9.625 L 5.792969 -9.625 C 7.886719 -9.625 9.304688 -8.242188 9.304688 -6.027344 C 9.304688 -3.816406 7.886719 -2.433594 5.792969 -2.433594 Z M 4.105469 -2.433594 "/></g></g></g><g fill="#ff4e5e" fill-opacity="1"><g transform="translate(278.122305, 80.587539)"><g><path d="M 0.945312 0 L 4.222656 0 L 4.222656 -4.152344 L 5.351562 -4.152344 L 8.476562 0 L 12.074219 0 L 8.445312 -4.390625 L 8.695312 -4.425781 C 10.519531 -4.710938 11.804688 -6.078125 11.804688 -8.039062 C 11.804688 -10.453125 9.894531 -12.058594 6.957031 -12.058594 L 0.945312 -12.058594 Z M 4.222656 -6.230469 L 4.222656 -9.742188 L 6.332031 -9.742188 C 7.617188 -9.742188 8.546875 -9.101562 8.546875 -7.988281 C 8.546875 -6.890625 7.617188 -6.230469 6.332031 -6.230469 Z M 4.222656 -6.230469 "/></g></g></g><g fill="#ff4e5e" fill-opacity="1"><g transform="translate(292.727292, 80.587539)"><g><path d="M 0.945312 0 L 10.351562 0 L 10.351562 -2.550781 L 4.085938 -2.550781 L 4.085938 -5.066406 L 9.863281 -5.066406 L 9.863281 -7.144531 L 4.085938 -7.144531 L 4.085938 -9.507812 L 10.183594 -9.507812 L 10.183594 -12.058594 L 0.945312 -12.058594 Z M 0.945312 0 "/></g></g></g><g fill="#ff4e5e" fill-opacity="1"><g transform="translate(305.779076, 80.587539)"><g><path d="M 0.136719 0 L 3.53125 0 L 4.171875 -2.007812 L 8.628906 -2.007812 L 9.269531 0 L 12.664062 0 L 8.816406 -12.058594 L 3.984375 -12.058594 Z M 4.796875 -4.324219 L 6.316406 -9.289062 L 6.46875 -9.289062 L 8.003906 -4.324219 Z M 4.796875 -4.324219 "/></g></g></g><g fill="#ff4e5e" fill-opacity="1"><g transform="translate(320.789233, 80.587539)"><g><path d="M 0.945312 0 L 4.085938 0 L 4.085938 -7.597656 L 4.238281 -7.597656 L 7.109375 0 L 9.625 0 L 12.496094 -7.617188 L 12.648438 -7.617188 L 12.648438 0 L 15.789062 0 L 15.789062 -12.058594 L 11.449219 -12.058594 L 8.445312 -3.816406 L 8.292969 -3.816406 L 5.203125 -12.058594 L 0.945312 -12.058594 Z M 0.945312 0 "/></g></g></g></svg>